<svg width="17" height="22" viewBox="0 0 17 22" fill="none" xmlns="http://www.w3.org/2000/svg">
<path d="M0 7.33331H1.83333V9.16665H0V7.33331Z" fill="black"/>
<path d="M0 9.16669H1.83333V11H0V9.16669Z" fill="black"/>
<path d="M0 11H1.83333V12.8333H0V11Z" fill="black"/>
<path d="M0 12.8333H1.83333V14.6666H0V12.8333Z" fill="black"/>
<path d="M0 14.6667H1.83333V16.5H0V14.6667Z" fill="black"/>
<path d="M0 16.5H1.83333V18.3333H0V16.5Z" fill="black"/>
<path d="M0 18.3333H1.83333V20.1666H0V18.3333Z" fill="black"/>
<path d="M1.83301 20.1667H3.66634V22H1.83301V20.1667Z" fill="black"/>
<path d="M3.66699 18.3333H5.50033V20.1666H3.66699V18.3333Z" fill="black"/>
<path d="M5.5 16.5H7.33333V18.3333H5.5V16.5Z" fill="black"/>
<path d="M7.33301 14.6667H9.16634V16.5H7.33301V14.6667Z" fill="black"/>
<path d="M9.16699 16.5H11.0003V18.3333H9.16699V16.5Z" fill="black"/>
<path d="M11 18.3333H12.8333V20.1666H11V18.3333Z" fill="black"/>
<path d="M12.833 20.1667H14.6663V22H12.833V20.1667Z" fill="black"/>
<path d="M14.667 18.3333H16.5003V20.1666H14.667V18.3333Z" fill="black"/>
<path d="M14.667 16.5H16.5003V18.3333H14.667V16.5Z" fill="black"/>
<path d="M14.667 14.6667H16.5003V16.5H14.667V14.6667Z" fill="black"/>
<path d="M14.667 12.8333H16.5003V14.6666H14.667V12.8333Z" fill="black"/>
<path d="M14.667 11H16.5003V12.8333H14.667V11Z" fill="black"/>
<path d="M14.667 9.16669H16.5003V11H14.667V9.16669Z" fill="black"/>
<path d="M14.667 7.33331H16.5003V9.16665H14.667V7.33331Z" fill="black"/>
<path d="M14.667 5.5H16.5003V7.33333H14.667V5.5Z" fill="black"/>
<path d="M14.667 3.66669H16.5003V5.50002H14.667V3.66669Z" fill="black"/>
<path d="M12.833 1.83331H14.6663V3.66665H12.833V1.83331Z" fill="black"/>
<path d="M11 0H12.8333V1.83333H11V0Z" fill="black"/>
<path d="M9.16699 0H11.0003V1.83333H9.16699V0Z" fill="black"/>
<path d="M7.33301 0H9.16634V1.83333H7.33301V0Z" fill="black"/>
<path d="M5.5 0H7.33333V1.83333H5.5V0Z" fill="black"/>
<path d="M3.66699 0H5.50033V1.83333H3.66699V0Z" fill="black"/>
<path d="M1.83301 1.83331H3.66634V3.66665H1.83301V1.83331Z" fill="black"/>
<path d="M0 3.66669H1.83333V5.50002H0V3.66669Z" fill="black"/>
<path d="M0 5.5H1.83333V7.33333H0V5.5Z" fill="black"/>
</svg>
