<svg width="22" height="22" viewBox="0 0 22 22" fill="none" xmlns="http://www.w3.org/2000/svg">
<g clip-path="url(#clip0_84_28)">
<path d="M18 2H16V4H18V2Z" fill="black"/>
<path d="M14 0H12V2H14V0Z" fill="black"/>
<path d="M12 0H10V2H12V0Z" fill="black"/>
<path d="M12 5H10V7H12V5Z" fill="black"/>
<path d="M12 7H10V9H12V7Z" fill="black"/>
<path d="M12 9H10V11H12V9Z" fill="black"/>
<path d="M12 11H10V13H12V11Z" fill="black"/>
<path d="M14 12H12V14H14V12Z" fill="black"/>
<path d="M10 0H8V2H10V0Z" fill="black"/>
<path d="M8 1H6V3H8V1Z" fill="black"/>
<path d="M14 1H16V3H14V1Z" fill="black"/>
<path d="M6 2H4V4H6V2Z" fill="black"/>
<path d="M16 2H18V4H16V2Z" fill="black"/>
<path d="M4 3H2V5H4V3Z" fill="black"/>
<path d="M18 3H20V5H18V3Z" fill="black"/>
<path d="M3 5H1V7H3V5Z" fill="black"/>
<path d="M19 5H21V7H19V5Z" fill="black"/>
<path d="M2 7H0V9H2V7Z" fill="black"/>
<path d="M20 7H22V9H20V7Z" fill="black"/>
<path d="M2 9H0V11H2V9Z" fill="black"/>
<path d="M20 9H22V11H20V9Z" fill="black"/>
<path d="M2 11H0V13H2V11Z" fill="black"/>
<path d="M20 11H22V13H20V11Z" fill="black"/>
<path d="M2 11H0V13H2V11Z" fill="black"/>
<path d="M20 11H22V13H20V11Z" fill="black"/>
<path d="M2 13H0V15H2V13Z" fill="black"/>
<path d="M20 13H22V15H20V13Z" fill="black"/>
<path d="M3 15H1V17H3V15Z" fill="black"/>
<path d="M19 15H21V17H19V15Z" fill="black"/>
<path d="M4 17H2V19H4V17Z" fill="black"/>
<path d="M18 17H20V19H18V17Z" fill="black"/>
<path d="M6 18H4V20H6V18Z" fill="black"/>
<path d="M16 18H18V20H16V18Z" fill="black"/>
<path d="M8 19H6V21H8V19Z" fill="black"/>
<path d="M14 19H16V21H14V19Z" fill="black"/>
<path d="M10 20H8V22H10V20Z" fill="black"/>
<path d="M12 20H10V22H12V20Z" fill="black"/>
<path d="M14 20H12V22H14V20Z" fill="black"/>
</g>
<defs>
<clipPath id="clip0_84_28">
<rect width="22" height="22" fill="white"/>
</clipPath>
</defs>
</svg>
