<svg width="64" height="64" viewBox="0 0 64 64" fill="none" xmlns="http://www.w3.org/2000/svg">
<g clip-path="url(#clip0_1054_15)">
<path d="M9.69922 27.4999V18.5999H0.699219V27.4999V36.4999V45.3999H9.69922V36.4999V27.4999Z" fill="white"/>
<path d="M54.3008 36.4999V45.3999H63.3008V36.4999V27.4999V18.5999H54.3008V27.4999V36.4999Z" fill="white"/>
<path d="M36.5 18.5999H27.5V27.4999V36.4999H36.5H45.4V27.4999H36.5V18.5999Z" fill="white"/>
<path d="M27.4977 9.69995H36.4977H45.3977V0.699951H36.4977H27.4977H18.5977V9.69995H27.4977Z" fill="white"/>
<path d="M27.4977 54.3H18.5977V63.3H27.4977H36.4977H45.3977V54.3H36.4977H27.4977Z" fill="white"/>
<path d="M18.5992 9.69995H9.69922V18.5999H18.5992V9.69995Z" fill="white"/>
<path d="M18.5992 45.3999H9.69922V54.2999H18.5992V45.3999Z" fill="white"/>
<path d="M54.2984 9.69995H45.3984V18.5999H54.2984V9.69995Z" fill="white"/>
<path d="M54.2984 45.3999H45.3984V54.2999H54.2984V45.3999Z" fill="white"/>
</g>
<defs>
<clipPath id="clip0_1054_15">
<rect width="64" height="64" fill="white"/>
</clipPath>
</defs>
</svg>
