<svg width="98" height="12" viewBox="0 0 98 12" fill="none" xmlns="http://www.w3.org/2000/svg">
<path d="M92.534 4.51555C89.702 4.27833 87.1469 4.31645 84.4656 4.31116C79.2331 4.29951 74.0019 3.37923 68.7693 3.411C57.0512 3.49466 45.1515 2.96516 33.3922 3.83672C29.9189 4.08983 26.4494 4.3048 23.0109 4.6691C22.6812 4.70193 22.3541 4.73582 22.0231 4.77394C18.797 5.1213 14.5858 4.91797 11.379 5.28226C8.55606 5.76623 6.36801 6.37304 3.66482 6.20784C2.94749 6.09346 2.1838 5.88696 1.75366 5.46865C0.814815 4.57061 0.378234 3.74882 0.832844 3.06364C0.980947 2.83808 1.23594 2.60616 1.51154 2.39753C2.04857 2.00994 2.6925 1.706 3.04279 1.67952C9.08537 1.15002 15.9406 1.05048 21.401 0.956224C24.0965 0.911746 26.8796 0.851382 30.282 0.735951C38.1431 0.570745 50.5386 0.464843 58.4073 0.305992C65.2831 0.163026 72.177 0.950929 78.9858 1.53656C81.5744 1.75789 83.2048 1.75789 85.5255 1.81825C85.9132 1.82249 86.351 1.83414 86.8005 1.84473C89.0942 1.90509 93.2256 1.60751 94.5598 2.18043C95.8953 2.75971 96.8277 2.82007 97.9945 3.88438C98.0563 4.93385 97.5862 5.41888 96.9899 5.59467C95.6004 6.01404 94.3267 6.48318 93.2462 6.6272C91.9802 6.79241 90.959 6.79876 90.7516 6.40163C90.5507 6.00345 90.664 5.7567 90.8649 5.57455C91.214 5.27697 91.8437 4.9508 92.4078 4.73052L92.534 4.51555Z" fill="#F2F2F2"/>
<path d="M37.431 9.26307C39.5907 9.16987 41.7633 9.04809 43.9166 9.11269C46.6404 9.19105 48.9482 9.44521 51.6514 9.41027C52.5632 9.40074 58.1112 9.41556 58.8685 9.40603C61.2291 9.37215 63.5511 9.3785 65.9053 9.43251C67.4674 9.47063 69.0373 9.54794 70.5879 9.69832C74.2364 10.051 78.0059 10.2882 81.5951 10.9607C82.5069 11.1322 83.4393 11.2752 84.3576 11.1375C85.2694 11.0051 86.6654 10.608 86.5714 9.78622C86.4645 8.8257 85.4986 7.63008 84.337 7.3272C83.9815 7.23825 83.1637 6.82417 82.8018 6.76275C82.4606 6.70768 82.1579 6.51071 81.8424 6.47682C81.098 6.39422 80.5404 6.67591 79.8501 6.81358C79.0452 6.97349 77.3014 6.52553 76.4695 6.50965C73.5319 6.44929 71.8217 7.06563 68.8828 7.04445C67.1468 7.03386 65.4017 6.98938 63.6644 6.96608C61.9967 6.94384 60.325 6.98409 58.6611 6.91101C57.4995 6.8623 56.3533 6.60178 55.2007 6.5806C54.2129 6.56366 53.2136 6.71298 52.2425 6.87289C51.4119 7.01585 50.4975 6.95549 49.6539 6.96079C48.8825 6.97243 47.9372 6.81252 47.2186 6.96079C46.2927 7.15458 45.265 7.15988 44.321 7.23613C42.5437 7.38015 41.65 7.1207 39.8805 7.30285C38.7794 7.41298 37.9667 7.76034 36.8682 7.63432C36.3054 7.5676 34.863 7.86624 34.3002 7.81647C33.722 7.77199 33.6821 8.11299 33.1605 8.16911C32.5282 8.23371 31.8907 8.21889 31.2609 8.24007C30.993 8.25171 30.2744 8.22842 30.0877 8.40103C29.825 8.63825 30.3491 9.12857 30.7432 9.2673C32.1869 9.78516 34.2719 9.37108 35.7941 9.32767C36.3376 9.31284 36.8824 9.2906 37.431 9.26307Z" fill="#F2F2F2"/>
</svg>
