<svg width="91" height="71" viewBox="0 0 91 71" fill="none" xmlns="http://www.w3.org/2000/svg">
<g clip-path="url(#clip0_1050_8)">
<path d="M10.1406 30.051H40.1406H50.1126H50.1406V20.079H50.1126V0.0510254H40.1406V20.079H10.1406V20.051H0.169625V20.079H0.140625V30.051H0.169625V40.079H0.140625V50.051H0.169625H10.1406H40.1406V70.051H50.1126V50.051H50.1406V40.079H50.1126V40.051H40.1406V40.079H10.1406V30.051Z" fill="white"/>
<path d="M80.1406 40.0791H70.1406V50.0506H80.1406V40.0791Z" fill="white"/>
<path d="M70.1406 50.0791H60.1406V60.0506H70.1406V50.0791Z" fill="white"/>
<path d="M60.1406 60.0791H50.1406V70.0506H60.1406V60.0791Z" fill="white"/>
<path d="M70.1406 10.0791H60.1406V20.0506H70.1406V10.0791Z" fill="white"/>
<path d="M60.1406 0.0505371H50.1406V10.0221H60.1406V0.0505371Z" fill="white"/>
<path d="M90.1406 30.0791H80.1406V40.0506H90.1406V30.0791Z" fill="white"/>
<path d="M80.1406 20.0791H70.1406V30.0506H80.1406V20.0791Z" fill="white"/>
</g>
<defs>
<clipPath id="clip0_1050_8">
<rect width="91" height="71" fill="white"/>
</clipPath>
</defs>
</svg>
