<svg width="48" height="48" viewBox="0 0 48 48" fill="none" xmlns="http://www.w3.org/2000/svg">
<path d="M20.975 37.4756L16.775 41.6756C13.875 44.5756 9.175 44.5756 6.275 41.6756C3.375 38.7756 3.375 34.0756 6.275 31.1756L18.875 18.5756C23.275 14.5756 27.875 17.0756 29.375 18.5756C30.875 20.0756 31.575 21.9756 31.575 23.9756L35.175 20.3756C34.675 18.6756 33.675 17.0756 32.275 15.6756C30.875 14.2756 23.575 8.77557 15.875 15.6756L3.375 28.1756C-1.125 32.6756 -1.125 40.0756 3.375 44.5756C7.875 49.0756 15.275 49.0756 19.775 44.5756L26.975 37.3756C24.975 37.8756 22.975 37.8756 20.975 37.4756Z" fill="white"/>
<path d="M44.5754 3.375C40.0754 -1.125 32.6754 -1.125 28.1754 3.375L20.9754 10.575C22.8754 10.175 24.9754 10.075 26.8754 10.475L31.0754 6.275C33.9754 3.375 38.6754 3.375 41.5754 6.275C44.4754 9.175 44.4754 13.875 41.5754 16.775L29.0754 29.375C24.8754 33.375 20.0754 30.875 18.5754 29.375C17.0754 27.875 16.3754 25.975 16.3754 23.975L12.7754 27.575C13.2754 29.275 14.2754 30.875 15.6754 32.275C17.0754 33.675 24.0754 39.075 32.0754 32.275L44.6754 19.675C49.0754 15.175 49.0754 7.875 44.5754 3.375Z" fill="white"/>
</svg>
