<svg width="241" height="104" viewBox="0 0 241 104" fill="none" xmlns="http://www.w3.org/2000/svg">
<path d="M1.24628 77.3446C1.84094 78.4963 2.91834 79.4863 4.4817 80.3176C6.04506 81.1489 7.77146 81.2789 9.67051 80.7078C13.1841 79.6544 16.4866 76.7005 19.5718 71.846C20.9401 69.7455 22.0591 67.8672 22.9255 66.2173C23.7919 64.5674 24.4473 63.2221 24.8917 62.1846C25.3361 61.1439 25.5375 60.5569 25.4959 60.4173C25.4543 60.2808 25.2657 60.2586 24.93 60.3602C24.0381 60.6267 22.1678 62.4892 19.3256 65.9381C17.4425 67.9529 15.1087 70.1358 12.3241 72.4806C9.53943 74.8285 7.8386 76.0913 7.22477 76.2753C6.61093 76.4593 6.27524 76.4562 6.2145 76.2595C6.15695 76.0659 6.27205 75.6534 6.56618 75.022C8.57073 70.0121 12.4519 64.964 18.2066 59.8811C23.9645 54.8013 30.0069 50.556 36.3339 47.1451C42.6609 43.7375 48.1534 41.3324 52.8115 39.9332C57.4696 38.5339 60.9736 37.8454 63.3234 37.8645C65.6732 37.8835 67.0416 38.5308 67.4316 39.8031C67.6842 40.6344 67.4732 41.6338 66.7922 42.8046C63.6079 48.5348 58.2337 54.6775 50.6759 61.2359C47.1048 64.3009 42.2516 67.753 36.1133 71.589L35.7776 71.6905C35.4963 71.773 35.3172 71.6778 35.2341 71.4018C35.151 71.1257 35.3524 70.4912 35.8416 69.4981C37.4785 65.0814 40.8354 58.1201 45.9155 48.6205C46.2448 48.1002 46.3279 47.5766 46.168 47.0499C46.0082 46.5232 45.5766 46.1552 44.8732 45.9426C44.1699 45.73 43.6072 45.6888 43.1916 45.8125C42.7728 45.9394 42.3795 46.298 42.0119 46.8913C39.2752 49.7056 36.5385 53.3069 33.7986 57.6949C27.347 68.0925 21.8992 80.178 17.4521 93.9578C16.9438 96.2867 16.8958 98.1269 17.3083 99.4849C17.7207 100.843 18.4336 101.88 19.4471 102.604C20.4574 103.327 21.3493 103.756 22.1198 103.886C22.8903 104.016 23.4274 104.035 23.7343 103.943C24.0413 103.851 24.0604 103.362 23.7887 102.477C24.1372 98.6282 27.152 89.8362 32.8299 76.1072C32.929 75.8375 33.0505 75.6788 33.188 75.6376C33.3255 75.5963 33.4598 75.6788 33.5812 75.8819C37.2994 78.6931 45.8611 83.9188 59.2695 91.5527C62.3771 93.1582 65.7436 93.4184 69.369 92.3269C72.9945 91.2386 74.6218 90.0837 74.2509 88.8685C74.1934 88.6781 74.0911 88.5036 73.944 88.3418C74.8456 88.4243 75.8335 88.3037 76.9013 87.9832C80.5267 86.8949 84.7436 83.9537 89.552 79.1563C91.2081 77.5032 92.7746 75.8533 94.2612 74.2066C94.0087 75.59 93.9959 76.6688 94.2325 77.4366C94.6705 78.8771 95.3419 79.8829 96.2498 80.4572C97.1546 81.0315 97.8387 81.3234 98.2991 81.3361C98.7595 81.3488 99.1368 81.3392 99.4341 81.3138C101.106 80.8125 103.005 79.2007 105.128 76.4784C107.251 73.7561 108.696 71.662 109.466 70.1897C110.237 68.7207 110.867 67.4896 111.356 66.4965C111.509 66.2078 111.631 66.0523 111.714 66.0269C111.797 66.0015 111.861 66.0587 111.903 66.1983C111.944 66.3379 112.021 67.3405 112.136 69.2093C112.248 71.0781 112.44 72.4583 112.711 73.3436C112.98 74.2288 113.677 74.8666 114.799 75.2537C115.921 75.6407 117.066 75.7518 118.233 75.5836C119.403 75.2314 120.448 74.7682 121.369 74.1907C123.936 72.4901 127.386 68.5874 131.711 62.4923C131.721 63.7678 131.868 64.8974 132.165 65.8746C133.246 69.4187 136.408 70.4023 141.651 68.8286C143.771 68.194 146.149 66.3157 148.793 63.1967C151.434 60.0778 153.912 56.4194 156.223 52.2217L156.131 52.52C156.834 52.4311 157.352 52.336 157.688 52.2344C159.142 51.7966 160.686 50.8955 162.32 49.5343C162.285 49.6327 162.243 49.7342 162.208 49.8326C160.907 53.456 160.475 55.9879 160.917 57.4252C161.355 58.8657 162.026 59.8715 162.934 60.4458C163.839 61.0201 164.523 61.312 164.983 61.3279C165.444 61.3406 165.821 61.3311 166.118 61.3057C167.79 60.8044 169.689 59.1925 171.812 56.4702C173.935 53.7479 175.38 51.6538 176.15 50.1816C176.921 48.7125 177.551 47.4814 178.04 46.4883C178.193 46.1996 178.315 46.0441 178.398 46.0188C178.481 45.9934 178.548 46.0632 178.599 46.2313L179.549 51.7458C180.07 53.4623 180.655 54.5855 181.307 55.1154C181.956 55.6453 182.81 55.7531 183.871 55.4327C184.93 55.1154 187.145 52.7897 190.512 48.4555C191.909 46.647 193.463 44.5053 195.173 42.0273C196.883 39.5524 198.396 37.3155 199.703 35.3198C199.914 35.0025 200.125 34.6757 200.336 34.3521C200.55 34.1617 200.742 33.9555 200.908 33.7334C203.565 29.6721 205.426 26.7879 206.49 25.0809C207.139 25.6108 208.345 25.871 210.106 25.8551C211.868 25.8392 213.22 25.6901 214.17 25.4046C210.608 30.0972 208.415 33.6414 207.593 36.0337C206.769 38.4261 206.679 40.6725 207.319 42.7761C208.501 46.6502 211.043 48.0018 214.947 46.831C217.456 46.079 220.89 42.9157 225.254 37.3473C229.615 31.7789 233.378 26.2993 236.546 20.9086C239.711 15.5179 241.191 12.4783 240.98 11.7834C240.769 11.0917 240.469 10.803 240.079 10.9204C226.482 28.2348 218.176 37.3409 215.164 38.2452C214.883 38.3277 214.72 38.2864 214.672 38.1215C214.352 37.0712 214.739 35.4435 215.832 33.2416C216.926 31.0396 218.185 28.9709 219.602 27.0354C221.021 25.1 222.492 23.1772 224.01 21.2703C225.529 19.3634 226.43 18.2339 226.718 17.8753C227.003 17.5168 227.089 17.1456 226.971 16.7585C226.852 16.3714 225.817 15.4735 223.866 14.0647C223.358 13.795 222.671 13.7887 221.808 14.0488C220.941 14.309 219.857 14.8928 218.55 15.7971C217.242 16.7045 216.184 17.2788 215.375 17.52C214.566 17.7643 212.427 17.5898 208.962 16.9996C205.493 16.4095 203.453 16.2064 202.839 16.3904C201.222 16.8759 200.106 17.4089 199.489 17.9864C198.875 18.5638 198.734 19.4078 199.073 20.512C199.124 20.677 199.291 20.9308 199.578 21.2671C200.419 22.2634 201.893 23.0979 203.994 23.7737C195.921 34.3394 189.703 41.6085 185.342 45.5714C185.134 44.4863 185.38 42.903 186.084 40.8152C186.506 39.6 186.928 38.4927 187.353 37.4901C187.778 36.4874 188.491 34.8375 189.498 32.5404C190.502 30.2464 191.372 28.203 192.104 26.4104C192.682 25.5124 192.887 24.7859 192.718 24.2306C192.548 23.6785 192.251 23.2978 191.822 23.0947C191.394 22.8916 191.004 22.8123 190.652 22.8567C189.837 22.3776 189.204 22.2031 188.76 22.3364C188.312 22.4696 187.896 22.898 187.506 23.6182C186.455 22.3649 185.39 21.8668 184.313 22.1302C181.522 22.9678 178.567 25.0016 175.444 28.2348C172.34 31.4489 169.692 34.9295 167.499 38.6735C166.732 39.5746 165.917 40.5043 165.044 41.4593C162.515 44.2419 160.424 46.1235 158.775 47.1039C161.527 40.9612 162.595 36.865 161.972 34.8153C161.348 32.7688 159.849 31.2522 157.483 30.2718C156.805 30.0528 156.134 30.0433 155.466 30.2432C151.987 31.4108 148.47 34.0633 144.925 38.2103C144.644 38.2928 144.474 38.2262 144.404 38.0041C144.337 37.782 144.41 37.4298 144.628 36.9411L149.561 29.7514C152.921 24.9984 156.089 19.6648 159.069 13.7569C162.045 7.84903 163.19 3.75919 162.499 1.48741C162.026 -0.0609593 160.341 -0.400457 157.441 0.468911C155.824 0.954362 154.724 1.39222 154.142 1.77614C153.56 2.16323 152.972 3.08019 152.377 4.52702C151.783 5.97386 151.261 7.65865 150.811 9.57507C150.36 11.4947 149.257 14.8135 147.502 19.5411C145.747 24.2687 143.579 29.4944 141.002 35.2214C140.986 35.1675 140.58 35.8909 139.794 37.398C139.004 38.9052 138.08 40.8723 137.028 43.3028C135.973 45.7364 134.969 48.2874 134.02 50.9589C133.921 51.2413 133.825 51.5237 133.729 51.8061C129.857 56.3496 126.241 60.3697 122.884 63.863C120.49 66.395 119.112 67.7149 118.747 67.8228C118.383 67.9307 118.178 67.9021 118.127 67.7371C117.536 65.8016 118.476 61.7404 120.947 55.5628C123.415 49.3852 127.504 41.5704 133.211 32.1247C135.669 28.0031 137.658 24.5987 139.183 21.9049C140.705 19.2143 142.038 16.3968 143.183 13.4555C144.327 10.5142 144.688 8.35351 144.263 6.96697C143.995 6.08173 143.384 5.78031 142.438 6.06587C139.647 6.90351 136.443 10.4191 132.821 16.6093C129.199 22.8028 126.251 28.7646 123.978 34.4885C121.705 40.2156 120.656 43.2647 120.829 43.6359C119.703 42.3414 118.639 41.8464 117.635 42.1478C114.844 42.9855 111.903 45.0161 108.808 48.2398C105.71 51.4666 103.037 54.9726 100.78 58.761C100.115 59.8811 99.4948 60.9916 98.9162 62.0957C94.7952 67.0771 91.2944 70.9195 88.4139 73.6196C84.2001 77.573 79.9736 80.1875 75.7343 81.4598C74.999 81.4408 74.4907 80.9712 74.2126 80.0574C73.9344 79.1436 74.0175 77.8205 74.4619 76.085C74.9063 74.3526 75.3251 73.4229 75.7152 73.3055C76.1052 73.1881 76.4377 73.1786 76.7126 73.2801C77.4128 73.9782 78.2217 74.1876 79.1424 73.9115C80.0632 73.6355 81.7416 72.36 84.1874 70.085C86.6299 67.8101 88.8103 65.1322 90.7317 62.0481C92.6531 58.9641 93.3341 56.5083 92.7778 54.6807C92.4741 53.6844 91.5885 52.8309 90.1275 52.1234C88.6632 51.4158 87.2629 51.2603 85.9233 51.6633C82.9117 52.5676 79.8106 54.7822 76.6231 58.3073C73.4357 61.8324 70.9675 65.8651 69.2156 70.4087C67.4636 74.9522 67.0863 78.858 68.0838 82.1229C68.736 84.2583 69.6152 85.8479 70.7214 86.8886C64.7429 84.601 57.006 80.4826 47.5044 74.5239C47.2135 74.3716 47.044 74.2098 46.9929 74.0448C46.8394 73.5466 47.2806 72.9914 48.3133 72.379C58.1953 64.4595 64.8324 57.9646 68.2213 52.9007C71.6102 47.8368 72.7387 43.4487 71.607 39.7396C70.8812 37.36 69.4777 35.5007 67.3964 34.1617C65.3152 32.8228 62.9302 32.0454 60.2446 31.8201C54.9471 31.4172 49.899 31.9343 45.1034 33.3748C39.5821 35.0311 34.4029 37.2204 29.5721 39.9395C24.7382 42.6587 20.7867 45.3715 17.7143 48.0748C14.6419 50.7812 11.8445 53.6432 9.32843 56.6638C6.80915 59.6843 4.96765 62.1877 3.80712 64.1676C2.6434 66.1475 1.63952 68.1432 0.789106 70.1485C-0.0613091 72.1569 -0.224359 74.0194 0.299958 75.7328L1.24948 77.3509L1.24628 77.3446ZM178.302 33.8508C180.968 30.4209 183.363 28.3902 185.483 27.7525C185.649 27.7017 185.748 27.7176 185.77 27.8033C185.796 27.8858 185.729 28.073 185.575 28.3617L182.129 33.8381C179.888 37.471 177.464 41.1611 174.862 44.9019C172.26 48.6427 170.623 50.6163 169.951 50.8161C169.84 50.851 169.769 50.813 169.734 50.6987C169.446 49.7596 170.137 47.5735 171.799 44.1436C173.462 40.7137 175.629 37.2838 178.299 33.8539L178.302 33.8508ZM146.939 43.3091C149.676 39.1051 152.496 36.5667 155.395 35.6942C155.561 35.6434 155.67 35.7006 155.721 35.8687C156.041 36.9221 155.437 39.5778 153.905 43.8453C152.374 48.1097 150.27 52.3994 147.598 56.705C144.922 61.0138 142.441 63.5108 140.155 64.1962C139.765 64.3136 139.509 64.1771 139.394 63.79C139.007 62.5177 139.484 59.8366 140.823 55.7468C142.166 51.6601 144.206 47.5132 146.939 43.3059V43.3091ZM118.802 47.767C118.968 47.7162 119.064 47.7321 119.09 47.8178C119.115 47.9034 119.048 48.0875 118.895 48.3762L115.531 53.8272C113.233 57.4792 110.784 61.1756 108.181 64.9164C105.579 68.6572 103.942 70.6308 103.271 70.8307C103.159 70.8656 103.085 70.8275 103.053 70.7133C102.765 69.7741 103.456 67.588 105.118 64.1581C106.781 60.7282 108.948 57.2983 111.618 53.8685C114.284 50.4386 116.679 48.4079 118.802 47.7702V47.767ZM80.6194 62.7176C83.1739 58.7198 85.1784 56.5019 86.6299 56.0641C86.9656 55.9626 87.1734 56.0514 87.2565 56.3274C87.5602 57.3237 86.2974 59.7288 83.4712 63.5362C80.645 67.3468 78.6181 69.4346 77.3904 69.8027C77.2242 69.8534 77.1219 69.8249 77.0899 69.7106C76.8885 69.0475 78.0618 66.7154 80.6194 62.7144V62.7176Z" fill="#F2F2F2" fill-opacity="0.9"/>
</svg>
