<?xml version="1.0" encoding="UTF-8"?>
<svg id="Layer_1" data-name="Layer 1" xmlns="http://www.w3.org/2000/svg" viewBox="0 0 774.49 524.66">
  <defs>
    <style>
      .cls-1 {
        fill: #fff;
      }
    </style>
  </defs>
  <path class="cls-1" d="M12.02,243.79c1.86,3.63,5.23,6.75,10.12,9.37,4.89,2.62,10.29,3.03,16.23,1.23,10.99-3.32,21.32-12.63,30.97-27.93,4.28-6.62,7.78-12.54,10.49-17.74,2.71-5.2,4.76-9.44,6.15-12.71,1.39-3.28,2.02-5.13,1.89-5.57-.13-.43-.72-.5-1.77-.18-2.79,.84-8.64,6.71-17.53,17.58-5.89,6.35-13.19,13.23-21.9,20.62-8.71,7.4-14.03,11.38-15.95,11.96-1.92,.58-2.97,.57-3.16-.05-.18-.61,.18-1.91,1.1-3.9,6.27-15.79,18.41-31.7,36.41-47.72,18.01-16.01,36.91-29.39,56.7-40.14,19.79-10.74,36.97-18.32,51.54-22.73,14.57-4.41,25.53-6.58,32.88-6.52,7.35,.06,11.63,2.1,12.85,6.11,.79,2.62,.13,5.77-2,9.46-9.96,18.06-26.77,37.42-50.41,58.09-11.17,9.66-26.35,20.54-45.55,32.63l-1.05,.32c-.88,.26-1.44-.04-1.7-.91-.26-.87,.37-2.87,1.9-6,5.12-13.92,15.62-35.86,31.51-65.8,1.03-1.64,1.29-3.29,.79-4.95-.5-1.66-1.85-2.82-4.05-3.49-2.2-.67-3.96-.8-5.26-.41-1.31,.4-2.54,1.53-3.69,3.4-8.56,8.87-17.12,20.22-25.69,34.05-20.18,32.77-37.22,70.86-51.13,114.29-1.59,7.34-1.74,13.14-.45,17.42,1.29,4.28,3.52,7.55,6.69,9.83,3.16,2.28,5.95,3.63,8.36,4.04,2.41,.41,4.09,.47,5.05,.18,.96-.29,1.02-1.83,.17-4.62,1.09-12.13,10.52-39.84,28.28-83.11,.31-.85,.69-1.35,1.12-1.48,.43-.13,.85,.13,1.23,.77,11.63,8.86,38.41,25.33,80.35,49.39,9.72,5.06,20.25,5.88,31.59,2.44,11.34-3.43,16.43-7.07,15.27-10.9-.18-.6-.5-1.15-.96-1.66,2.82,.26,5.91-.12,9.25-1.13,11.34-3.43,24.53-12.7,39.57-27.82,5.18-5.21,10.08-10.41,14.73-15.6-.79,4.36-.83,7.76-.09,10.18,1.37,4.54,3.47,7.71,6.31,9.52,2.83,1.81,4.97,2.73,6.41,2.77,1.44,.04,2.62,.01,3.55-.07,5.23-1.58,11.17-6.66,17.81-15.24,6.64-8.58,11.16-15.18,13.57-19.82,2.41-4.63,4.38-8.51,5.91-11.64,.48-.91,.86-1.4,1.12-1.48s.46,.1,.59,.54c.13,.44,.37,3.6,.73,9.49,.35,5.89,.95,10.24,1.8,13.03,.84,2.79,3.02,4.8,6.53,6.02,3.51,1.22,7.09,1.57,10.74,1.04,3.66-1.11,6.93-2.57,9.81-4.39,8.03-5.36,18.82-17.66,32.35-36.87,.03,4.02,.49,7.58,1.42,10.66,3.38,11.17,13.27,14.27,29.67,9.31,6.63-2,14.07-7.92,22.34-17.75,8.26-9.83,16.01-21.36,23.24-34.59l-.29,.94c2.2-.28,3.82-.58,4.87-.9,4.55-1.38,9.38-4.22,14.49-8.51-.11,.31-.24,.63-.35,.94-4.07,11.42-5.42,19.4-4.04,23.93,1.37,4.54,3.47,7.71,6.31,9.52,2.83,1.81,4.97,2.73,6.41,2.78,1.44,.04,2.62,.01,3.55-.07,5.23-1.58,11.17-6.66,17.81-15.24,6.64-8.58,11.16-15.18,13.57-19.82,2.41-4.63,4.38-8.51,5.91-11.64,.48-.91,.86-1.4,1.12-1.48,.26-.08,.47,.14,.63,.67l2.97,17.38c1.63,5.41,3.46,8.95,5.5,10.62,2.03,1.67,4.7,2.01,8.02,1,3.31-1,10.24-8.33,20.77-21.99,4.37-5.7,9.23-12.45,14.58-20.26,5.35-7.8,10.08-14.85,14.17-21.14,.66-1,1.32-2.03,1.98-3.05,.67-.6,1.27-1.25,1.79-1.95,8.31-12.8,14.13-21.89,17.46-27.27,2.03,1.67,5.8,2.49,11.31,2.44,5.51-.05,9.74-.52,12.71-1.42-11.14,14.79-18,25.96-20.57,33.5-2.58,7.54-2.86,14.62-.86,21.25,3.7,12.21,11.65,16.47,23.86,12.78,7.85-2.37,18.59-12.34,32.24-29.89,13.64-17.55,25.41-34.82,35.32-51.81,9.9-16.99,14.53-26.57,13.87-28.76-.66-2.18-1.6-3.09-2.82-2.72-42.53,54.57-68.51,83.27-77.93,86.12-.88,.26-1.39,.13-1.54-.39-1-3.31,.21-8.44,3.63-15.38,3.42-6.94,7.36-13.46,11.79-19.56,4.44-6.1,9.04-12.16,13.79-18.17,4.75-6.01,7.57-9.57,8.47-10.7,.89-1.13,1.16-2.3,.79-3.52-.37-1.22-3.61-4.05-9.71-8.49-1.59-.85-3.74-.87-6.44-.05-2.71,.82-6.1,2.66-10.19,5.51-4.09,2.86-7.4,4.67-9.93,5.43-2.53,.77-9.22,.22-20.06-1.64-10.85-1.86-17.23-2.5-19.15-1.92-5.06,1.53-8.55,3.21-10.48,5.03-1.92,1.82-2.36,4.48-1.3,7.96,.16,.52,.68,1.32,1.58,2.38,2.63,3.14,7.24,5.77,13.81,7.9-25.25,33.3-44.7,56.21-58.34,68.7-.65-3.42,.12-8.41,2.32-14.99,1.32-3.83,2.64-7.32,3.97-10.48,1.33-3.16,3.56-8.36,6.71-15.6,3.14-7.23,5.86-13.67,8.15-19.32,1.81-2.83,2.45-5.12,1.92-6.87-.53-1.74-1.46-2.94-2.8-3.58-1.34-.64-2.56-.89-3.66-.75-2.55-1.51-4.53-2.06-5.92-1.64-1.4,.42-2.7,1.77-3.92,4.04-3.29-3.95-6.62-5.52-9.99-4.69-8.73,2.64-17.97,9.05-27.74,19.24-9.71,10.13-17.99,21.1-24.85,32.9-2.4,2.84-4.95,5.77-7.68,8.78-7.91,8.77-14.45,14.7-19.61,17.79,8.61-19.36,11.95-32.27,10-38.73-1.95-6.45-6.64-11.23-14.04-14.32-2.12-.69-4.22-.72-6.31-.09-10.88,3.68-21.88,12.04-32.97,25.11-.88,.26-1.41,.05-1.63-.65-.21-.7,.02-1.81,.7-3.35l15.43-22.66c10.51-14.98,20.42-31.79,29.74-50.41,9.31-18.62,12.89-31.51,10.73-38.67-1.48-4.88-6.75-5.95-15.82-3.21-5.06,1.53-8.5,2.91-10.32,4.12-1.82,1.22-3.66,4.11-5.52,8.67-1.86,4.56-3.49,9.87-4.9,15.91-1.41,6.05-4.86,16.51-10.35,31.41-5.49,14.9-12.27,31.37-20.33,49.42-.05-.17-1.32,2.11-3.78,6.86-2.47,4.75-5.36,10.95-8.65,18.61-3.3,7.67-6.44,15.71-9.41,24.13-.31,.89-.61,1.78-.91,2.67-12.11,14.32-23.42,26.99-33.92,38-7.49,7.98-11.8,12.14-12.94,12.48-1.14,.34-1.78,.25-1.94-.27-1.85-6.1,1.09-18.9,8.82-38.37,7.72-19.47,20.51-44.1,38.36-73.87,7.69-12.99,13.91-23.72,18.68-32.21,4.76-8.48,8.93-17.36,12.51-26.63,3.58-9.27,4.71-16.08,3.38-20.45-.84-2.79-2.75-3.74-5.71-2.84-8.73,2.64-18.75,13.72-30.08,33.23-11.33,19.52-20.55,38.31-27.66,56.35-7.11,18.05-10.39,27.66-9.85,28.83-3.52-4.08-6.85-5.64-9.99-4.69-8.73,2.64-17.93,9.04-27.61,19.2-9.69,10.17-18.05,21.22-25.11,33.16-2.08,3.53-4.02,7.03-5.83,10.51-12.89,15.7-23.84,27.81-32.85,36.32-13.18,12.46-26.4,20.7-39.66,24.71-2.3-.06-3.89-1.54-4.76-4.42-.87-2.88-.61-7.05,.78-12.52,1.39-5.46,2.7-8.39,3.92-8.76,1.22-.37,2.26-.4,3.12-.08,2.19,2.2,4.72,2.86,7.6,1.99,2.88-.87,8.13-4.89,15.78-12.06,7.64-7.17,14.46-15.61,20.47-25.33,6.01-9.72,8.14-17.46,6.4-23.22-.95-3.14-3.72-5.83-8.29-8.06-4.58-2.23-8.96-2.72-13.15-1.45-9.42,2.85-19.12,9.83-29.09,20.94-9.97,11.11-17.69,23.82-23.17,38.14-5.48,14.32-6.66,26.63-3.54,36.92,2.04,6.73,4.79,11.74,8.25,15.02-18.7-7.21-42.9-20.19-72.62-38.97-.91-.48-1.44-.99-1.6-1.51-.48-1.57,.9-3.32,4.13-5.25,30.91-24.96,51.67-45.43,62.27-61.39,10.6-15.96,14.13-29.79,10.59-41.48-2.27-7.5-6.66-13.36-13.17-17.58-6.51-4.22-13.97-6.67-22.37-7.38-16.57-1.27-32.36,.36-47.36,4.9-17.27,5.22-33.47,12.12-48.58,20.69-15.12,8.57-27.48,17.12-37.09,25.64-9.61,8.53-18.36,17.55-26.23,27.07-7.88,9.52-13.64,17.41-17.27,23.65-3.64,6.24-6.78,12.53-9.44,18.85-2.66,6.33-3.17,12.2-1.53,17.6l2.97,5.1ZM565.83,106.71c8.34-10.81,15.83-17.21,22.46-19.22,.52-.16,.83-.11,.9,.16,.08,.26-.13,.85-.61,1.76l-10.78,17.26c-7.01,11.45-14.59,23.08-22.73,34.87-8.14,11.79-13.26,18.01-15.36,18.64-.35,.11-.57-.01-.68-.37-.9-2.96,1.26-9.85,6.46-20.66,5.2-10.81,11.98-21.62,20.33-32.43Zm-98.1,29.81c8.56-13.25,17.38-21.25,26.45-24,.52-.16,.86,.02,1.02,.55,1,3.32-.89,11.69-5.68,25.14-4.79,13.44-11.37,26.96-19.73,40.53-8.37,13.58-16.13,21.45-23.28,23.61-1.22,.37-2.02-.06-2.38-1.28-1.21-4.01,.28-12.46,4.47-25.35,4.2-12.88,10.58-25.95,19.13-39.21Zm-88.01,14.05c.52-.16,.82-.11,.9,.16s-.13,.85-.61,1.76l-10.52,17.18c-7.19,11.51-14.85,23.16-22.99,34.95-8.14,11.79-13.26,18.01-15.36,18.64-.35,.11-.58-.01-.68-.37-.9-2.96,1.26-9.85,6.46-20.66,5.2-10.81,11.98-21.62,20.33-32.43,8.34-10.81,15.83-17.21,22.47-19.22Zm-119.43,47.12c7.99-12.6,14.26-19.59,18.8-20.97,1.05-.32,1.7-.04,1.96,.83,.95,3.14-3,10.72-11.84,22.72-8.84,12.01-15.18,18.59-19.02,19.75-.52,.16-.84,.07-.94-.29-.63-2.09,3.04-9.44,11.04-22.05Z"/>
  <path class="cls-1" d="M419.02,316.24c-2.73-3.36-4.84-4.82-6.32-4.37-1.48,.45-2.24,4.1-2.25,10.96,.15,6.81-3.96,20.91-12.34,42.29-8.38,21.39-16.03,37.03-22.94,46.93-3.36,4.64-5.74,7.16-7.13,7.58-.88,.26-1.55-.39-2.02-1.96s-.38-5.17,.3-10.8c.68-5.63,1.56-10.42,2.65-14.37,1.09-3.95,4.1-11.62,9.04-23.01,4.93-11.39,7.66-17.79,8.19-19.19,.53-1.4,.64-2.62,.32-3.67-.69-2.27-3.06-3.17-7.1-2.71-1.35-1.31-2.98-1.67-4.9-1.09-1.22,.37-3.03,3.06-5.42,8.07-2.39,5.01-8.35,14.29-17.86,27.83-9.52,13.55-15.68,20.74-18.47,21.58-.35,.11-.58-.01-.68-.37-.58-1.92,.89-6.98,4.4-15.19,3.52-8.2,6.13-13.89,7.83-17.08l2.9-4.59c7.98-13.27,11.66-20.95,11.03-23.04-.63-2.09-5.31-1.82-14.03,.82-2.79,.84-5.27,3.21-7.42,7.1-2.16,3.89-9.7,12.17-22.62,24.84-2.09,2.54-2.98,4.33-2.66,5.38,.48,1.57,3.24,1.59,8.3,.06-.81,1.48-1.58,2.93-2.34,4.35-16.44,20.61-30.08,36.05-40.9,46.29-13.18,12.46-26.4,20.7-39.66,24.71-2.3-.06-3.89-1.54-4.76-4.42-.87-2.88-.61-7.05,.78-12.52,1.39-5.46,2.7-8.38,3.92-8.75,1.22-.37,2.26-.4,3.12-.09,2.19,2.2,4.72,2.86,7.6,1.99,2.88-.87,8.13-4.89,15.78-12.06,7.64-7.17,14.46-15.61,20.47-25.33,6.01-9.72,8.15-17.46,6.4-23.22-.95-3.14-3.72-5.82-8.29-8.06-4.58-2.23-8.96-2.72-13.15-1.45-9.42,2.85-19.12,9.83-29.09,20.94-9.97,11.11-17.69,23.82-23.17,38.14-5.48,14.32-6.66,26.63-3.54,36.92,2.04,6.73,4.79,11.74,8.25,15.02-18.7-7.21-42.9-20.19-72.62-38.97-.91-.48-1.44-.99-1.6-1.51-.48-1.57,.9-3.32,4.13-5.25,30.91-24.96,51.67-45.43,62.27-61.39,10.6-15.96,14.13-29.79,10.59-41.48-2.27-7.5-6.66-13.36-13.17-17.58-6.51-4.21-13.97-6.67-22.37-7.37-16.57-1.27-32.36,.36-47.36,4.9-17.27,5.22-33.47,12.12-48.58,20.69-15.12,8.57-27.48,17.12-37.09,25.64-9.61,8.53-18.36,17.55-26.23,27.07-7.88,9.52-13.64,17.41-17.27,23.65-3.64,6.24-6.78,12.53-9.44,18.85-2.66,6.33-3.17,12.2-1.53,17.6l2.97,5.1c1.86,3.63,5.23,6.75,10.12,9.37,4.89,2.62,10.29,3.03,16.23,1.23,10.99-3.32,21.32-12.63,30.97-27.93,4.28-6.62,7.78-12.54,10.49-17.74,2.71-5.2,4.76-9.44,6.15-12.71,1.39-3.28,2.02-5.13,1.89-5.57-.13-.43-.72-.5-1.77-.18-2.79,.84-8.64,6.71-17.53,17.59-5.89,6.35-13.19,13.23-21.9,20.62-8.72,7.4-14.03,11.38-15.95,11.96-1.92,.58-2.97,.57-3.16-.04-.18-.61,.18-1.91,1.1-3.9,6.27-15.79,18.41-31.7,36.41-47.72,18.01-16.02,36.91-29.39,56.7-40.14,19.79-10.74,36.97-18.32,51.54-22.73,14.56-4.41,25.53-6.58,32.88-6.52,7.35,.06,11.63,2.1,12.85,6.11,.79,2.62,.13,5.77-2,9.46-9.96,18.06-26.77,37.43-50.41,58.09-11.17,9.66-26.35,20.54-45.55,32.63l-1.05,.32c-.87,.26-1.44-.04-1.7-.91-.26-.87,.37-2.87,1.9-6,5.12-13.92,15.62-35.86,31.51-65.8,1.03-1.64,1.29-3.29,.79-4.95-.5-1.66-1.85-2.82-4.05-3.49-2.2-.67-3.96-.8-5.26-.41-1.31,.4-2.54,1.53-3.69,3.4-8.56,8.87-17.12,20.22-25.69,34.05-20.18,32.77-37.22,70.86-51.13,114.29-1.59,7.34-1.74,13.14-.45,17.42,1.29,4.28,3.52,7.55,6.69,9.83,3.16,2.28,5.95,3.63,8.36,4.04,2.41,.41,4.09,.47,5.05,.18,.96-.29,1.02-1.83,.17-4.62,1.09-12.13,10.52-39.84,28.28-83.11,.31-.85,.68-1.35,1.12-1.48,.43-.13,.85,.13,1.23,.77,11.63,8.86,38.41,25.33,80.35,49.4,9.72,5.06,20.25,5.87,31.59,2.44,11.34-3.43,16.43-7.07,15.27-10.9-.18-.6-.5-1.15-.96-1.66,2.82,.26,5.9-.12,9.25-1.13,11.34-3.43,24.53-12.7,39.57-27.82,8.24-8.28,15.79-16.55,22.69-24.8-.3,3.2-.12,5.94,.56,8.19,.69,2.27,2.6,4.35,5.75,6.26,3.15,1.91,6.16,2.42,9.04,1.55,2.88-.87,4.84-2.42,5.88-4.64l19.27-26.96c1.01-1.06,1.73-1.67,2.17-1.8,.43-.13,.72,.02,.85,.46,.13,.44,.19,.94,.17,1.52-1.35,6.88-1.12,13.29,.67,19.22,3.11,10.3,9.81,13.88,20.11,10.77,9.07-2.74,18.67-11.93,28.8-27.56,10.13-15.63,17.94-31.51,23.44-47.65,5.5-16.13,7.47-26.77,5.91-31.92-1.56-5.14-3.7-9.4-6.43-12.76Zm-166.84,78.31c7.99-12.6,14.26-19.59,18.8-20.97,1.05-.32,1.7-.04,1.96,.83,.95,3.14-3,10.72-11.84,22.72-8.84,12.01-15.18,18.59-19.02,19.75-.52,.16-.84,.07-.94-.29-.63-2.09,3.04-9.44,11.04-22.05Z"/>
  <path class="cls-1" d="M485.27,254.79c-.73-.54-1.98-.54-3.72-.02-4.02,1.21-8.41,5.26-13.19,12.13-4.78,6.87-6.37,12.92-4.79,18.16,1,3.32,3.15,4.76,6.45,4.33,4.19-1.27,8.07-4.01,11.65-8.24,3.58-4.22,5.86-7.39,6.84-9.5,.98-2.1,1.8-3.97,2.45-5.6,.65-1.62,.7-3.35,.14-5.19-.55-1.83-2.5-3.86-5.84-6.09Z"/>
  <path class="cls-1" d="M774.26,226.23c-.53-1.74-1.76-2.99-3.7-3.74-25.3,32.22-47.78,58.63-67.44,79.24-7.49,7.98-11.8,12.14-12.94,12.48-1.14,.34-1.78,.25-1.94-.27-1.85-6.11,1.09-18.9,8.82-38.37,7.72-19.47,20.51-44.09,38.36-73.87,7.69-12.99,13.91-23.72,18.68-32.21,4.76-8.48,8.93-17.36,12.51-26.64,3.58-9.27,4.71-16.08,3.38-20.45-.84-2.79-2.75-3.74-5.71-2.84-8.73,2.64-18.75,13.72-30.08,33.23-11.33,19.52-20.55,38.31-27.66,56.35-7.11,18.05-10.39,27.66-9.85,28.83-3.52-4.08-6.85-5.64-9.99-4.69-8.73,2.64-17.93,9.04-27.61,19.21-9.69,10.17-18.05,21.22-25.11,33.16-2.12,3.6-4.09,7.16-5.94,10.71-.16,.22-.32,.43-.48,.66-9.48,13.06-17.16,23.24-23.04,30.54-5.89,7.31-11.12,12.98-15.7,17.03-4.58,4.06-7.88,6.38-9.88,6.99-2.01,.61-3.25,.13-3.72-1.44-.9-2.96-1.43-6.61-1.6-10.94,.1-1.55,.54-3.54,1.34-5.97,.79-2.42,1.51-4.6,2.17-6.51,.66-1.91,1.85-4.75,3.57-8.5,1.72-3.76,3.27-7.13,4.65-10.12s3.51-7.44,6.39-13.36c2.88-5.91,5.42-11.21,7.62-15.87,.43-1.08,.44-2.32,.02-3.72-.42-1.39-1.64-2.26-3.65-2.61l-7.96,.12c-.63-.19-1.77-.04-3.43,.47-1.66,.5-3.44,2-5.36,4.48-9.87,14.6-22.78,32.03-38.75,52.28l-1.07,1.18c-.18,.05-.31-.09-.42-.44-.11-.35,.55-2.26,1.98-5.74l11.4-33.15c.5-1.48,.57-2.84,.2-4.06-.53-1.74-2.62-2.82-6.27-3.25-3.65-.42-6.17-.42-7.57,0-1.92,.58-3.76,3.8-5.5,9.66-.67,2.23-1.38,4.69-2.14,7.37-22.39,29.4-46.13,56.44-71.23,81.08-2.65,1.94-4.59,3.1-5.81,3.47-2.09,.63-3.43,0-4.01-1.93-.58-1.92-.54-4.31,.12-7.18,.42-6.79,2.63-15.69,6.63-26.71,4-11.01,7.15-18.87,9.44-23.56,2.29-4.69,4-8.16,5.14-10.41,1.13-2.24,1.56-3.8,1.3-4.68-.26-.87-1-1.41-2.2-1.62-3.74-.39-7.44-.04-11.1,1.07-3.66,1.11-6.77,3.1-9.33,5.97-1.83,1.51-4.78,7.21-8.83,17.09-4.06,9.9-7.57,20.95-10.53,33.18-2.97,12.23-3.61,21.13-1.92,26.72,4.33,14.31,13.21,19.43,26.64,15.36,3.66-1.11,6.93-2.57,9.81-4.39,8.87-5.92,21.1-20.28,36.67-43.08,5.95-8.66,12.3-18.19,19.05-28.61,.4-.62,.8-1.23,1.18-1.83-.95,2.33-1.94,4.46-2.96,6.37-2.96,9.09-9.11,21.51-18.43,37.28-.45,1.66-.41,3.36,.12,5.11,1.58,5.23,5.25,6.98,11.01,5.24,2.09-.63,3.7-1.59,4.84-2.89,7.05-6.89,21.94-27.58,44.64-62.06,.78-1.19,1.21-1.65,1.29-1.39s-.17,1.34-.74,3.22l-6.58,18.84c-2.39,7.2-2.77,13.5-1.14,18.91,4.33,14.3,13.21,19.43,26.64,15.37,6.98-2.11,17.18-12.62,30.6-31.53,.63-.89,1.24-1.75,1.85-2.62,.05,1.26,.21,2.38,.5,3.34,1.37,4.54,3.47,7.71,6.31,9.52,2.83,1.81,4.97,2.73,6.41,2.77,1.44,.04,2.62,.01,3.55-.07,5.23-1.58,11.17-6.66,17.81-15.24,6.64-8.58,11.16-15.18,13.57-19.82,2.41-4.63,4.38-8.51,5.91-11.64,.48-.91,.86-1.4,1.12-1.48s.46,.1,.59,.54c.13,.44,.38,3.6,.73,9.49s.95,10.24,1.8,13.02c.84,2.79,3.02,4.8,6.53,6.02,3.51,1.22,7.09,1.57,10.74,1.04,3.66-1.11,6.93-2.58,9.81-4.39,8.87-5.92,21.1-20.28,36.67-43.08,5.95-8.66,12.3-18.19,19.05-28.61,6.75-10.42,11.29-17.6,13.62-21.54,2.33-3.94,4.13-6.96,5.4-9.06,1.27-2.1,1.64-4.02,1.11-5.76Zm-94.13,43.89c-7.19,11.5-14.85,23.16-22.99,34.95-8.14,11.79-13.26,18.01-15.36,18.64-.35,.11-.57-.01-.68-.37-.9-2.96,1.26-9.85,6.46-20.66,5.2-10.81,11.98-21.62,20.33-32.43,8.34-10.81,15.83-17.21,22.46-19.22,.52-.16,.82-.11,.9,.16,.08,.26-.13,.85-.61,1.76l-10.52,17.18Z"/>
  <path class="cls-1" d="M763.28,368.14c0-3.84-2.28-5.54-6.88-5.54h-7.41v19.47h2.95v-8.44h3.39l5.13,8.44h3.3l-5.54-8.57c2.86-.36,5.04-1.88,5.04-5.36Zm-11.34,2.99v-6.03h4.02c2.05,0,4.24,.45,4.24,2.86,0,2.99-2.23,3.17-4.73,3.17h-3.53Z"/>
  <path class="cls-1" d="M755.51,355.46c-9.29,0-17.14,7.14-17.14,16.83s7.86,16.92,17.14,16.92,17.05-7.14,17.05-16.92-7.86-16.83-17.05-16.83Zm0,30.94c-7.72,0-13.75-5.98-13.75-14.11s6.03-14.02,13.75-14.02,13.66,6.03,13.66,14.02-6.03,14.11-13.66,14.11Z"/>
</svg>