<svg width="48" height="48" viewBox="0 0 48 48" fill="none" xmlns="http://www.w3.org/2000/svg">
<path d="M23.8531 47.96C10.6578 47.96 0 37.3022 0 23.8531C0 10.404 10.6578 0 23.8531 0C37.0485 0 47.96 10.6578 47.96 23.8531C47.7062 37.0485 37.0485 47.7062 23.8531 47.96ZM23.8531 3.80635C12.6878 3.80635 3.80635 12.9416 3.80635 23.8531C3.80635 34.7647 12.9416 44.1537 23.8531 44.1537C34.7647 44.1537 44.1537 35.0184 44.1537 23.8531C43.8999 12.6878 35.0184 3.80635 23.8531 3.80635Z" fill="white"/>
<path d="M30.9575 32.9891C30.7037 32.9891 30.1962 32.9891 29.9425 32.7353L22.5835 27.914C22.076 27.6602 21.8223 26.8989 21.8223 26.3914V13.1961C21.8223 12.181 22.5835 11.166 23.8523 11.166C24.8673 11.166 25.8824 11.9273 25.8824 13.1961V25.3764L32.2263 29.4365C32.9876 29.944 33.2413 31.2128 32.7338 31.9741C32.2263 32.7353 31.465 32.9891 30.9575 32.9891Z" fill="white"/>
</svg>
