<svg width="65" height="68" viewBox="0 0 65 68" fill="none" xmlns="http://www.w3.org/2000/svg">
<path d="M22.5822 12.8712H19.3517V9.6798H22.5822V12.8712ZM45.1602 16.1407V12.8712H41.9414V16.1095L45.1602 16.1407ZM29.0312 9.6798V54.8708H32.2617V9.6798H38.7226V6.4493H35.4921V3.2305H32.2616V0H29.0311V3.2305H25.8006V6.4493H22.5818L22.5822 9.6798H29.0312ZM48.3902 19.3517V16.1408L45.1602 16.1407L45.1597 19.3517H48.3902ZM51.609 22.59L51.6129 19.3517H48.3902L48.3902 22.59H51.609ZM41.9414 12.8712L41.941 9.6798H38.7105V12.8712H41.9414ZM54.832 64.5122H3.262V67.7505H61.262V64.5122H54.832ZM61.2617 54.8716V64.5435H64.5V54.8716H61.2617ZM3.2617 58.0708V54.8716H0V64.5435H3.2617V58.0708ZM12.9531 19.3518H9.6719V22.5901H12.9102L12.9531 19.3518ZM16.1719 16.1409H12.9102V19.3518H16.129L16.1719 16.1409ZM19.3517 12.8712L16.1328 12.8714V16.1097H19.3516L19.3517 12.8712Z" fill="black"/>
</svg>
